# xmcd
#
# Track frame offsets:
#	150
#	18011
#	30521
#	45854
#	62350
#	78143
#	92245
#	104457
#	116331
#	131651
#	147960
#	161657
#
# Disc length: 2526 seconds
# Revision: 0
# Processed by: cddbd v1.5.2PL0 Copyright (c) Steve Scherf et al.
# Submitted via: dBpowerAMP V12.0
#
DISCID=8709dc0c
DTITLE=Brody Young - One Way
DYEAR=2014
DGENRE=Blues Acoustic
TTITLE0=Let Go
TTITLE1=Can't Be Afraid
TTITLE2=One Way
TTITLE3=Working Away
TTITLE4=DiddlyDum
TTITLE5=Control
TTITLE6=I Think We Forget
TTITLE7=Hey Young Man
TTITLE8=Stepping Stone
TTITLE9=Survive
TTITLE10=Waiting For The Light
TTITLE11=Percussion Jam
EXTD=
EXTT0=
EXTT1=
EXTT2=
EXTT3=
EXTT4=
EXTT5=
EXTT6=
EXTT7=
EXTT8=
EXTT9=
EXTT10=
EXTT11=
PLAYORDER=
